<?xml version="1.0" standalone="no"?>
<!DOCTYPE svg PUBLIC "-//W3C//DTD SVG 20010904//EN"
 "http://www.w3.org/TR/2001/REC-SVG-20010904/DTD/svg10.dtd">
<svg version="1.0" xmlns="http://www.w3.org/2000/svg"
 width="700.000000pt" height="700.000000pt" viewBox="0 0 700.000000 700.000000"
 preserveAspectRatio="xMidYMid meet">
<metadata>
Created by potrace 1.14, written by Peter Selinger 2001-2017
</metadata>
<g transform="translate(0.000000,700.000000) scale(0.100000,-0.100000)"
fill="#000000" stroke="none">
<path d="M3420 6949 c-36 -4 -85 -14 -110 -22 -158 -50 -2945 -1104 -2988
-1130 -131 -78 -235 -208 -287 -357 l-30 -85 -3 -1625 c-3 -1824 -7 -1711 71
-1870 32 -67 59 -103 123 -167 l81 -81 1493 -747 c1143 -571 1511 -751 1568
-766 98 -25 226 -25 324 0 58 15 423 193 1564 764 1367 684 1494 750 1551 802
81 73 152 180 188 285 l30 85 3 1620 c3 1827 7 1710 -73 1873 -58 116 -155
218 -260 274 -79 41 -2928 1112 -3014 1133 -78 19 -155 23 -231 14z m1394
-1377 c715 -268 1301 -492 1303 -498 2 -6 -560 -239 -1306 -543 l-1310 -532
-1311 532 c-721 293 -1309 538 -1307 543 4 12 2581 983 2612 985 11 0 605
-219 1319 -487z m1306 -2367 l0 -915 -1090 -545 -1090 -545 0 1017 0 1018
1088 442 c598 243 1088 442 1090 442 1 1 2 -411 2 -914z"/>
</g>
</svg>
